# xmcd
#
# Track frame offsets:
#	183
#	12870
#	25443
#	39758
#	56808
#	71583
#	87903
#	99270
#	117618
#	134528
#	142358
#	157958
#	173470
#	187948
#	198738
#
# Disc length: 2769 seconds
#
# Revision: 1
# Processed by: cddbd v1.5.1PL2 Copyright (c) Steve Scherf et al.
# Submitted via: EasyCDDAExtractor 6.0.0.1
#
DISCID=cf0acf0f
DTITLE=Commander Cody - Country Music CM020
DYEAR=1999
DGENRE=Country
TTITLE0=Hot Rod Lincoln # 9 ('72)
TTITLE1=Riot In Cell Black No. 9
TTITLE2=They Kicked Me Out Of The Band
TTITLE3=What's The Matter Now?
TTITLE4=Smoke, Smoke, Smoke That Cigarette
TTITLE5=Seeds And Stems Again
TTITLE6=Lost In The Ozone Again
TTITLE7=Beat Me Daddy Eight To The Bar
TTITLE8=Oh Mama Mama
TTITLE9=Steel Guitar Rag
TTITLE10=Four Or Five Times
TTITLE11=Going Back To Tennessee
TTITLE12=King Of The Honky Tonks
TTITLE13=Last Ring Of Fire
TTITLE14=Diggy Liggy Lo
EXTD=
EXTT0=
EXTT1=
EXTT2=
EXTT3=
EXTT4=
EXTT5=
EXTT6=
EXTT7=
EXTT8=
EXTT9=
EXTT10=
EXTT11=
EXTT12=
EXTT13=
EXTT14=
PLAYORDER=
